<svg width="134" height="98" viewBox="0 0 134 98" fill="none" xmlns="http://www.w3.org/2000/svg">
<path fill-rule="evenodd" clip-rule="evenodd" d="M80.5601 97H82.8948C87.2586 97.1036 91.6507 97.1719 96.0991 97.1719C103.642 97.1719 110.26 96.0787 115.868 93.7845C121.472 91.4918 125.917 88.131 129.032 83.637C132.203 79.0808 133.728 73.697 133.728 67.6289C133.728 63.8118 133.084 60.2675 131.739 57.0415C130.399 53.8249 128.412 50.996 125.811 48.5684C123.278 46.1691 120.21 44.1464 116.654 42.473C113.098 40.7997 109.074 39.4856 104.604 38.5096L97.1772 36.8135L97.1647 36.8108C94.6822 36.255 92.5768 35.6018 90.8257 34.8672C89.2176 34.1767 88.1897 33.4075 87.5579 32.6542C87.0362 32.0322 86.7359 31.2674 86.7359 30.1875C86.7359 29.254 86.9878 28.4695 87.5016 27.7449C88.0337 27.0458 88.8905 26.3775 90.268 25.8368C91.6551 25.3075 93.5459 24.9844 96.0406 24.9844C99.7593 24.9844 102.167 25.7865 103.674 26.9757L103.697 26.9937L103.72 27.0112C105.226 28.1537 106.114 29.7455 106.291 32.1111L106.499 34.8867H132.6L132.556 31.8436C132.47 25.9 130.922 19.561 127.838 14.9321C124.761 10.2751 120.435 6.72424 114.983 4.25185C109.512 1.73203 103.19 0.523438 96.0991 0.523438C89.1165 0.523438 82.7956 1.71535 77.197 4.17531L77.1893 4.17872C73.9254 5.62378 71.0351 7.42453 68.5413 9.588L90.3345 45.4398H80.5601V57.4177C82.1459 57.9284 83.8021 58.3805 85.5267 58.7758L94.7528 60.8912C97.8433 61.5696 100.25 62.318 102.034 63.1069L102.066 63.1208L102.097 63.1341C106.717 65.0517 107.276 70.7076 101.995 72.739L101.986 72.7426L101.977 72.7461C100.428 73.3534 98.4004 73.7109 95.8062 73.7109C92.8075 73.7109 90.8228 73.7172 89.3267 73.7219C85.934 73.7327 85.0538 73.7354 80.5601 73.6391V97ZM55.5601 97V45.4398H45.5588L67.9521 9.96235C65.669 7.22463 62.8147 5.8798 59.4279 4.28409C59.2343 4.19291 59.0391 4.10091 58.8421 4.00778C53.9494 1.69488 48.2091 0.599992 41.7199 0.599992H0.919922V89.197L0.832966 97H55.5601ZM77.5601 56.3483V42.44H77.56V56.3483C77.56 56.3483 77.56 56.3483 77.5601 56.3483ZM77.56 73.5727C77.56 73.5727 77.56 73.5727 77.5601 73.5727V95.9998H77.56V73.5727ZM47.8091 23.8918L47.7586 23.8413C46.7569 22.8396 45.3044 22.2 43.0399 22.2H25.5199V34.2H43.0399C45.3441 34.2 46.8147 33.5758 47.8098 32.6287C48.9031 31.5845 49.5199 30.2058 49.5199 28.2C49.5199 26.1914 48.9039 24.887 47.8619 23.9398L47.8091 23.8918ZM25.5199 73.8H43.8799C47.035 73.8 49.2292 72.9127 50.7975 71.4005C52.3862 69.8685 53.2399 67.8802 53.2399 65.16C53.2399 62.3374 52.3719 60.3177 50.7975 58.7995C49.2292 57.2873 47.035 56.4 43.8799 56.4H25.5199V73.8ZM68.3201 14.9998L68.3201 15L84.9999 42.4398H85.0001L68.3201 14.9998Z" fill="black"/>
</svg>
